<?xml version="1.0" encoding="UTF-8"?>
<svg xmlns="http://www.w3.org/2000/svg" xmlns:xlink="http://www.w3.org/1999/xlink" width="375pt" height="374.999991pt" viewBox="0 0 375 374.999991" version="1.2">
<defs>
<clipPath id="clip1">
  <path d="M 7.03125 9.429688 L 366.28125 9.429688 L 366.28125 368.679688 L 7.03125 368.679688 Z M 7.03125 9.429688 "/>
</clipPath>
</defs>
<g id="surface1">
<g clip-path="url(#clip1)" clip-rule="nonzero">
<path style=" stroke:none;fill-rule:nonzero;fill:rgb(17.649841%,42.349243%,76.078796%);fill-opacity:1;" d="M 186.6875 368.707031 C 87.625 368.707031 7.03125 288.128906 7.03125 189.082031 C 7.03125 90.019531 87.625 9.429688 186.6875 9.429688 C 285.742188 9.429688 366.320312 90.019531 366.320312 189.082031 C 366.320312 288.128906 285.742188 368.707031 186.6875 368.707031 Z M 186.6875 27.21875 C 97.433594 27.21875 24.820312 99.828125 24.820312 189.082031 C 24.820312 278.324219 97.433594 350.925781 186.6875 350.925781 C 275.929688 350.925781 348.535156 278.324219 348.535156 189.082031 C 348.535156 99.832031 275.929688 27.21875 186.6875 27.21875 Z M 186.6875 27.21875 "/>
</g>
<path style=" stroke:none;fill-rule:nonzero;fill:rgb(17.649841%,42.349243%,76.078796%);fill-opacity:1;" d="M 284.992188 103.964844 C 234.15625 156.878906 183.328125 209.796875 132.496094 262.710938 C 136.425781 262.710938 140.355469 262.710938 144.285156 262.710938 C 125.644531 245.464844 107 228.214844 88.351562 210.96875 C 80.472656 203.679688 68.652344 215.441406 76.5625 222.757812 C 95.207031 240.003906 113.851562 257.257812 132.496094 274.503906 C 135.777344 277.539062 141.046875 277.875 144.285156 274.503906 C 195.117188 221.585938 245.949219 168.671875 296.78125 115.757812 C 304.230469 108.003906 292.449219 96.199219 284.992188 103.964844 Z M 284.992188 103.964844 "/>
</g>
</svg>
