<?xml version="1.0" encoding="UTF-8"?>
<svg xmlns="http://www.w3.org/2000/svg" xmlns:xlink="http://www.w3.org/1999/xlink" width="750pt" height="374.999991pt" viewBox="0 0 750 374.999991" version="1.2">
<g id="surface1">
<path style="fill:none;stroke-width:2;stroke-linecap:round;stroke-linejoin:round;stroke:rgb(0%,0%,0%);stroke-opacity:1;stroke-miterlimit:10;" d="M 6.060936 37.38406 C 6.0171 42.931075 7.887027 49.000064 15.199053 49.000064 C 19.482104 49.000064 22.375892 43.771133 20.356985 36.274902 C 19.696073 36.445118 17.404953 37.197007 13.948961 37.497027 C 10.016904 37.83899 6.060936 37.38406 6.060936 37.38406 Z M 6.060936 37.38406 " transform="matrix(0.00000000000000078,12.742813,-12.759538,0.000000000000000781,693.843179,29.973657)"/>
<path style="fill:none;stroke-width:2;stroke-linecap:round;stroke-linejoin:round;stroke:rgb(0%,0%,0%);stroke-opacity:1;stroke-miterlimit:10;" d="M 4.854987 27.971065 C 4.854987 27.971065 3.089899 22.852958 3.005905 18.56603 C 2.852939 10.747124 5.44386 1.000126 12.671893 1.000126 C 20.657092 1.000126 22.261857 11.832097 21.954086 15.953095 C 21.534119 21.583993 19.227978 26.962016 19.227978 26.962016 C 19.227978 26.962016 14.436981 25.952967 12.167932 26.121958 C 9.897964 26.290031 6.704068 27.130089 4.854987 27.971065 Z M 4.854987 27.971065 " transform="matrix(0.00000000000000078,12.742813,-12.759538,0.000000000000000781,693.843179,29.973657)"/>
<path style="fill:none;stroke-width:2;stroke-linecap:round;stroke-linejoin:round;stroke:rgb(0%,0%,0%);stroke-opacity:1;stroke-miterlimit:10;" d="M 45.144854 27.971065 C 45.144854 27.971065 46.909942 22.852958 46.993936 18.56603 C 47.146902 10.747124 44.55598 1.000126 37.327948 1.000126 C 29.343055 1.000126 27.737983 11.832097 28.046061 15.953095 C 28.466029 21.583993 30.771863 26.962016 30.771863 26.962016 C 30.771863 26.962016 35.56286 25.952967 37.831908 26.121958 C 40.101877 26.290031 43.296079 27.130089 45.144854 27.971065 Z M 45.144854 27.971065 " transform="matrix(0.00000000000000078,12.742813,-12.759538,0.000000000000000781,693.843179,29.973657)"/>
<path style="fill:none;stroke-width:1;stroke-linecap:round;stroke-linejoin:miter;stroke:rgb(0%,0%,0%);stroke-opacity:1;stroke-miterlimit:4;" d="M 0.49969 0.0000855395 L 87.45543 0.0000855395 " transform="matrix(-0.000000000000001436,3.751999,-3.75,-0.000000000000001436,52.187821,37.50407)"/>
<path style="fill:none;stroke-width:1;stroke-linecap:round;stroke-linejoin:miter;stroke:rgb(0%,0%,0%);stroke-opacity:1;stroke-miterlimit:4;" d="M 0.49969 -0.000184619 L 87.45543 -0.000184619 " transform="matrix(-0.000000000000001436,3.751999,-3.75,-0.000000000000001436,697.803995,37.50407)"/>
<path style=" stroke:none;fill-rule:nonzero;fill:rgb(67.83905%,63.529968%,25.878906%);fill-opacity:1;" d="M 663.929688 364.6875 L 663.929688 325.847656 L 692.582031 345.316406 Z M 663.929688 364.6875 "/>
<path style=" stroke:none;fill-rule:nonzero;fill:rgb(67.83905%,63.529968%,25.878906%);fill-opacity:1;" d="M 85.714844 364.6875 L 85.714844 325.847656 L 57.066406 345.316406 Z M 85.714844 364.6875 "/>
<path style=" stroke:none;fill-rule:nonzero;fill:rgb(67.83905%,63.529968%,25.878906%);fill-opacity:1;" d="M 694.230469 342.871094 L 665.582031 323.402344 C 664.707031 322.816406 663.542969 322.714844 662.570312 323.207031 C 661.597656 323.695312 661.015625 324.769531 661.015625 325.847656 L 661.015625 342.382812 L 88.628906 342.382812 L 88.628906 325.847656 C 88.628906 324.769531 88.046875 323.792969 87.078125 323.304688 C 86.105469 322.816406 84.941406 322.816406 84.066406 323.5 L 55.414062 342.871094 C 54.636719 343.359375 54.152344 344.339844 54.152344 345.316406 C 54.152344 346.296875 54.636719 347.175781 55.414062 347.761719 L 84.066406 367.234375 C 84.550781 367.527344 85.132812 367.722656 85.714844 367.722656 C 86.203125 367.722656 86.6875 367.625 87.078125 367.332031 C 88.046875 366.839844 88.628906 365.863281 88.628906 364.785156 L 88.628906 348.253906 L 661.015625 348.253906 L 661.015625 364.785156 C 661.015625 365.863281 661.597656 366.839844 662.570312 367.332031 C 662.960938 367.527344 663.445312 367.722656 663.929688 367.722656 C 664.511719 367.722656 665.097656 367.527344 665.582031 367.234375 L 694.230469 347.761719 C 695.007812 347.175781 695.496094 346.296875 695.496094 345.316406 C 695.496094 344.339844 695.007812 343.359375 694.230469 342.871094 Z M 82.804688 359.210938 L 62.3125 345.316406 L 82.804688 331.328125 Z M 666.84375 359.210938 L 666.84375 331.328125 L 687.335938 345.21875 Z M 666.84375 359.210938 "/>
</g>
</svg>
