<?xml version="1.0" encoding="UTF-8"?>
<svg xmlns="http://www.w3.org/2000/svg" xmlns:xlink="http://www.w3.org/1999/xlink" width="337.5pt" height="168.749997pt" viewBox="0 0 337.5 168.749997" version="1.2">
<defs>
<clipPath id="clip1">
  <path d="M 272 99 L 313.167969 99 L 313.167969 137 L 272 137 Z M 272 99 "/>
</clipPath>
<clipPath id="clip2">
  <path d="M 24.269531 33 L 267 33 L 267 142.199219 L 24.269531 142.199219 Z M 24.269531 33 "/>
</clipPath>
<clipPath id="clip3">
  <path d="M 17 143 L 47 143 L 47 168.5 L 17 168.5 Z M 17 143 "/>
</clipPath>
<clipPath id="clip4">
  <path d="M 290 143 L 321 143 L 321 168.5 L 290 168.5 Z M 290 143 "/>
</clipPath>
</defs>
<g id="surface1">
<path style="fill:none;stroke-width:1;stroke-linecap:round;stroke-linejoin:miter;stroke:rgb(0%,0%,0%);stroke-opacity:1;stroke-miterlimit:4;" d="M 0.500962 0.0000814228 L 87.45463 0.0000814228 " transform="matrix(-0.000000000000000646,1.688399,-1.6875,-0.000000000000000646,23.484512,16.876832)"/>
<path style="fill:none;stroke-width:1;stroke-linecap:round;stroke-linejoin:miter;stroke:rgb(0%,0%,0%);stroke-opacity:1;stroke-miterlimit:4;" d="M 0.500962 0.0000323488 L 87.45463 0.0000323488 " transform="matrix(-0.000000000000000646,1.688399,-1.6875,-0.000000000000000646,314.011773,16.876832)"/>
<path style=" stroke:none;fill-rule:nonzero;fill:rgb(6.269836%,5.879211%,5.099487%);fill-opacity:1;" d="M 246.929688 31.511719 C 244.824219 28.226562 240.4375 27.25 237.15625 29.378906 C 235.207031 30.613281 233.972656 32.742188 233.898438 35.078125 C 233.847656 35.925781 234.101562 36.796875 234.566406 37.542969 C 236.667969 40.828125 241.054688 41.804688 244.339844 39.671875 C 246.289062 38.441406 247.519531 36.3125 247.597656 34 C 247.648438 33.128906 247.390625 32.253906 246.929688 31.511719 "/>
<path style=" stroke:none;fill-rule:nonzero;fill:rgb(6.269836%,5.879211%,5.099487%);fill-opacity:1;" d="M 262.605469 45.550781 C 262.65625 44.472656 262.347656 43.394531 261.757812 42.472656 C 259.140625 38.363281 253.652344 37.15625 249.546875 39.777344 C 247.109375 41.34375 245.570312 44.011719 245.46875 46.914062 C 245.417969 47.992188 245.722656 49.070312 246.3125 49.992188 C 248.929688 54.125 254.421875 55.332031 258.523438 52.6875 C 260.988281 51.121094 262.5 48.453125 262.605469 45.550781 "/>
<path style=" stroke:none;fill-rule:nonzero;fill:rgb(6.269836%,5.879211%,5.099487%);fill-opacity:1;" d="M 278.148438 61.132812 C 278.203125 59.773438 277.816406 58.414062 277.097656 57.28125 C 273.789062 52.125 266.964844 50.609375 261.808594 53.921875 C 258.757812 55.871094 256.832031 59.207031 256.703125 62.828125 C 256.652344 64.1875 257.039062 65.546875 257.753906 66.703125 C 261.066406 71.839844 267.890625 73.351562 273.046875 70.042969 C 276.097656 68.089844 277.996094 64.753906 278.148438 61.132812 "/>
<path style=" stroke:none;fill-rule:nonzero;fill:rgb(6.269836%,5.879211%,5.099487%);fill-opacity:1;" d="M 293.851562 82.695312 C 291.566406 75.40625 283.792969 71.324219 276.507812 73.609375 C 272.199219 74.96875 268.785156 78.359375 267.453125 82.695312 C 266.941406 84.3125 266.941406 86.058594 267.453125 87.703125 C 269.734375 94.992188 277.484375 99.046875 284.769531 96.761719 C 289.105469 95.402344 292.492188 92.015625 293.851562 87.703125 C 294.363281 86.058594 294.363281 84.3125 293.851562 82.695312 "/>
<g clip-path="url(#clip1)" clip-rule="nonzero">
<path style=" stroke:none;fill-rule:nonzero;fill:rgb(6.269836%,5.879211%,5.099487%);fill-opacity:1;" d="M 312.578125 114.65625 C 309.113281 103.617188 297.363281 97.457031 286.308594 100.921875 C 279.765625 102.976562 274.636719 108.109375 272.582031 114.65625 C 271.8125 117.121094 271.8125 119.765625 272.582031 122.226562 C 276.046875 133.292969 287.796875 139.425781 298.851562 135.988281 C 305.394531 133.933594 310.523438 128.773438 312.578125 122.226562 C 313.347656 119.765625 313.347656 117.121094 312.578125 114.65625 "/>
</g>
<g clip-path="url(#clip2)" clip-rule="nonzero">
<path style=" stroke:none;fill-rule:nonzero;fill:rgb(6.269836%,5.879211%,5.099487%);fill-opacity:1;" d="M 26.101562 78.359375 C 23.023438 85.699219 23.589844 94.09375 27.617188 100.972656 C 42.496094 126.359375 75.152344 134.882812 100.550781 119.996094 C 100.882812 119.789062 101.214844 119.609375 101.550781 119.40625 C 115.273438 112.832031 130.640625 110.574219 145.675781 112.882812 C 162.527344 116.296875 178.484375 123.152344 192.542969 133.035156 C 203.265625 140.554688 216.480469 143.636719 229.433594 141.632812 C 240.335938 139.941406 250.46875 134.960938 258.5 127.414062 C 265.117188 121.203125 267.890625 111.910156 265.785156 103.078125 C 259.910156 78.511719 246.3125 56.511719 226.996094 40.289062 C 223.070312 36.976562 218.199219 34.949219 213.09375 34.460938 C 191.851562 32.460938 170.457031 36.515625 151.394531 46.117188 C 127.023438 51.839844 101.730469 52.535156 77.078125 48.171875 C 55.269531 45.859375 34.566406 58.128906 26.101562 78.359375 "/>
</g>
<path style="fill:none;stroke-width:1;stroke-linecap:round;stroke-linejoin:miter;stroke:rgb(100%,56.858826%,30.198669%);stroke-opacity:1;stroke-miterlimit:4;" d="M 0.501132 0.0000174286 L 169.302879 0.0000174286 " transform="matrix(1.687469,0,0,1.6875,25.478574,152.718721)"/>
<path style="fill:none;stroke-width:1;stroke-linecap:round;stroke-linejoin:miter;stroke:rgb(100%,56.858826%,30.198669%);stroke-opacity:1;stroke-miterlimit:4;" d="M 0.500649 0.0000208412 L 7.894819 0.0000109457 " transform="matrix(1.421093,0.912355,-0.911676,1.420036,299.644018,145.19945)"/>
<g clip-path="url(#clip3)" clip-rule="nonzero">
<path style="fill:none;stroke-width:1;stroke-linecap:round;stroke-linejoin:miter;stroke:rgb(100%,56.858826%,30.198669%);stroke-opacity:1;stroke-miterlimit:4;" d="M 0.500254 0.000663788 L 7.894423 0.000653892 " transform="matrix(1.421093,0.912355,-0.911676,1.420036,25.934229,152.585617)"/>
</g>
<path style="fill:none;stroke-width:1;stroke-linecap:round;stroke-linejoin:miter;stroke:rgb(100%,56.858826%,30.198669%);stroke-opacity:1;stroke-miterlimit:4;" d="M 0.499665 0.000620355 L 7.895931 0.000562712 " transform="matrix(1.422283,-0.910499,0.909822,1.421225,25.933302,152.836875)"/>
<g clip-path="url(#clip4)" clip-rule="nonzero">
<path style="fill:none;stroke-width:1;stroke-linecap:round;stroke-linejoin:miter;stroke:rgb(100%,56.858826%,30.198669%);stroke-opacity:1;stroke-miterlimit:4;" d="M 0.500217 0.00138293 L 7.894535 0.0000772429 " transform="matrix(1.422283,-0.910499,0.909822,1.421225,299.634948,160.223013)"/>
</g>
</g>
</svg>
