<?xml version="1.0" encoding="UTF-8"?>
<svg xmlns="http://www.w3.org/2000/svg" xmlns:xlink="http://www.w3.org/1999/xlink" width="750pt" height="374.999991pt" viewBox="0 0 750 374.999991" version="1.2">
<defs>
<clipPath id="clip1">
  <path d="M 604 222 L 695.929688 222 L 695.929688 305 L 604 305 Z M 604 222 "/>
</clipPath>
<clipPath id="clip2">
  <path d="M 53.929688 75 L 593 75 L 593 316 L 53.929688 316 Z M 53.929688 75 "/>
</clipPath>
</defs>
<g id="surface1">
<path style="fill:none;stroke-width:1;stroke-linecap:round;stroke-linejoin:miter;stroke:rgb(0%,0%,0%);stroke-opacity:1;stroke-miterlimit:4;" d="M 0.49969 0.0000855395 L 87.45543 0.0000855395 " transform="matrix(-0.000000000000001436,3.751999,-3.75,-0.000000000000001436,52.187821,37.50407)"/>
<path style="fill:none;stroke-width:1;stroke-linecap:round;stroke-linejoin:miter;stroke:rgb(0%,0%,0%);stroke-opacity:1;stroke-miterlimit:4;" d="M 0.49969 -0.000184619 L 87.45543 -0.000184619 " transform="matrix(-0.000000000000001436,3.751999,-3.75,-0.000000000000001436,697.803995,37.50407)"/>
<path style=" stroke:none;fill-rule:nonzero;fill:rgb(6.269836%,5.879211%,5.099487%);fill-opacity:1;" d="M 548.734375 70.023438 C 544.058594 62.722656 534.308594 60.554688 527.011719 65.289062 C 522.679688 68.027344 519.945312 72.761719 519.773438 77.953125 C 519.660156 79.835938 520.230469 81.773438 521.253906 83.429688 C 525.929688 90.730469 535.679688 92.898438 542.976562 88.164062 C 547.308594 85.425781 550.042969 80.691406 550.214844 75.554688 C 550.328125 73.617188 549.757812 71.675781 548.734375 70.023438 "/>
<path style=" stroke:none;fill-rule:nonzero;fill:rgb(6.269836%,5.879211%,5.099487%);fill-opacity:1;" d="M 583.566406 101.226562 C 583.679688 98.832031 582.996094 96.433594 581.683594 94.382812 C 575.867188 85.253906 563.667969 82.574219 554.546875 88.390625 C 549.132812 91.871094 545.710938 97.804688 545.484375 104.25 C 545.371094 106.644531 546.054688 109.042969 547.363281 111.09375 C 553.179688 120.277344 565.378906 122.960938 574.5 117.085938 C 579.972656 113.605469 583.335938 107.671875 583.566406 101.226562 "/>
<path style=" stroke:none;fill-rule:nonzero;fill:rgb(6.269836%,5.879211%,5.099487%);fill-opacity:1;" d="M 618.113281 135.851562 C 618.226562 132.828125 617.371094 129.804688 615.773438 127.296875 C 608.421875 115.828125 593.257812 112.464844 581.796875 119.824219 C 575.011719 124.160156 570.738281 131.574219 570.453125 139.617188 C 570.339844 142.640625 571.195312 145.664062 572.789062 148.230469 C 580.144531 159.640625 595.308594 163.003906 606.765625 155.648438 C 613.550781 151.3125 617.769531 143.894531 618.113281 135.851562 "/>
<path style=" stroke:none;fill-rule:nonzero;fill:rgb(6.269836%,5.879211%,5.099487%);fill-opacity:1;" d="M 653 183.769531 C 647.925781 167.570312 630.652344 158.5 614.464844 163.574219 C 604.886719 166.597656 597.304688 174.128906 594.339844 183.769531 C 593.199219 187.363281 593.199219 191.242188 594.339844 194.894531 C 599.414062 211.09375 616.628906 220.105469 632.820312 215.03125 C 642.453125 212.007812 649.980469 204.476562 653 194.894531 C 654.140625 191.242188 654.140625 187.363281 653 183.769531 "/>
<g clip-path="url(#clip1)" clip-rule="nonzero">
<path style=" stroke:none;fill-rule:nonzero;fill:rgb(6.269836%,5.879211%,5.099487%);fill-opacity:1;" d="M 694.617188 254.789062 C 686.921875 230.261719 660.8125 216.570312 636.242188 224.269531 C 621.703125 228.835938 610.300781 240.242188 605.742188 254.789062 C 604.03125 260.265625 604.03125 266.140625 605.742188 271.617188 C 613.4375 296.203125 639.546875 309.835938 664.117188 302.195312 C 678.65625 297.628906 690.054688 286.164062 694.617188 271.617188 C 696.328125 266.140625 696.328125 260.265625 694.617188 254.789062 "/>
</g>
<g clip-path="url(#clip2)" clip-rule="nonzero">
<path style=" stroke:none;fill-rule:nonzero;fill:rgb(6.269836%,5.879211%,5.099487%);fill-opacity:1;" d="M 58.003906 174.128906 C 51.164062 190.445312 52.417969 209.097656 61.371094 224.386719 C 94.433594 280.800781 167.003906 299.742188 223.445312 266.65625 C 224.183594 266.199219 224.925781 265.800781 225.667969 265.34375 C 256.167969 250.738281 290.3125 245.71875 323.722656 250.855469 C 361.175781 258.441406 396.632812 273.671875 427.875 295.632812 C 451.703125 312.347656 481.0625 319.191406 509.851562 314.742188 C 534.082031 310.976562 556.601562 299.910156 574.445312 283.140625 C 589.152344 269.335938 595.308594 248.6875 590.632812 229.0625 C 577.578125 174.472656 547.363281 125.585938 504.4375 89.53125 C 495.714844 82.171875 484.882812 77.667969 473.539062 76.582031 C 426.335938 72.132812 378.792969 81.148438 336.433594 102.480469 C 282.277344 115.203125 226.066406 116.742188 171.28125 107.046875 C 122.824219 101.910156 76.820312 129.179688 58.003906 174.128906 "/>
</g>
<path style="fill:none;stroke-width:1;stroke-linecap:round;stroke-linejoin:miter;stroke:rgb(100%,56.858826%,30.198669%);stroke-opacity:1;stroke-miterlimit:4;" d="M 0.49951 0.00000594283 L 169.303674 0.00000594283 " transform="matrix(3.749931,0,0,3.75,56.61906,339.374978)"/>
<path style="fill:none;stroke-width:1;stroke-linecap:round;stroke-linejoin:miter;stroke:rgb(100%,56.858826%,30.198669%);stroke-opacity:1;stroke-miterlimit:4;" d="M 0.499731 0.000316096 L 7.895096 -0.000186719 " transform="matrix(3.157985,2.027456,-2.025947,3.155636,665.875621,322.665507)"/>
<path style="fill:none;stroke-width:1;stroke-linecap:round;stroke-linejoin:miter;stroke:rgb(100%,56.858826%,30.198669%);stroke-opacity:1;stroke-miterlimit:4;" d="M 0.500194 0.000145912 L 7.894683 0.00020586 " transform="matrix(3.157985,2.027456,-2.025947,3.155636,57.631628,339.079168)"/>
<path style="fill:none;stroke-width:1;stroke-linecap:round;stroke-linejoin:miter;stroke:rgb(100%,56.858826%,30.198669%);stroke-opacity:1;stroke-miterlimit:4;" d="M 0.500362 -0.0000433809 L 7.894737 0.0000621588 " transform="matrix(3.16063,-2.023331,2.021826,3.158278,57.629566,339.637535)"/>
<path style="fill:none;stroke-width:1;stroke-linecap:round;stroke-linejoin:miter;stroke:rgb(100%,56.858826%,30.198669%);stroke-opacity:1;stroke-miterlimit:4;" d="M 0.500454 0.000142651 L 7.894829 0.000248191 " transform="matrix(3.16063,-2.023331,2.021826,3.158278,665.855461,356.051197)"/>
</g>
</svg>
